<svg width="24" height="24" viewBox="0 0 24 24" fill="none" xmlns="http://www.w3.org/2000/svg">
<path fill-rule="evenodd" clip-rule="evenodd" d="M20.2071 7.70711C20.5976 7.31658 20.5976 6.68342 20.2071 6.29289C19.8166 5.90237 19.1834 5.90237 18.7929 6.29289L6.29289 18.7929C5.90237 19.1834 5.90237 19.8166 6.29289 20.2071C6.68342 20.5976 7.31658 20.5976 7.70711 20.2071L20.2071 7.70711ZM20.2071 11.2929C20.5976 11.6834 20.5976 12.3166 20.2071 12.7071L12.7071 20.2071C12.3166 20.5976 11.6834 20.5976 11.2929 20.2071C10.9024 19.8166 10.9024 19.1834 11.2929 18.7929L18.7929 11.2929C19.1834 10.9024 19.8166 10.9024 20.2071 11.2929ZM20.2071 16.2929C20.5976 16.6834 20.5976 17.3166 20.2071 17.7071L17.7071 20.2071C17.3166 20.5976 16.6834 20.5976 16.2929 20.2071C15.9024 19.8166 15.9024 19.1834 16.2929 18.7929L18.7929 16.2929C19.1834 15.9024 19.8166 15.9024 20.2071 16.2929Z" fill="#1B1B1B"/>
</svg>
